<svg xmlns="http://www.w3.org/2000/svg" xmlns:xlink="http://www.w3.org/1999/xlink" width="500" zoomAndPan="magnify" viewBox="0 0 375 374.999991" height="500" preserveAspectRatio="xMidYMid meet" version="1.0"><defs><g/><clipPath id="e45da6e8d4"><path d="M 18.363281 200.375 L 44.109375 200.375 L 44.109375 226.125 L 18.363281 226.125 Z M 18.363281 200.375 " clip-rule="nonzero"/></clipPath><clipPath id="eb9c1af5a0"><path d="M 31.238281 200.375 C 24.125 200.375 18.363281 206.136719 18.363281 213.25 C 18.363281 220.359375 24.125 226.125 31.238281 226.125 C 38.347656 226.125 44.109375 220.359375 44.109375 213.25 C 44.109375 206.136719 38.347656 200.375 31.238281 200.375 " clip-rule="nonzero"/></clipPath><clipPath id="66cb24b9bb"><path d="M 18.363281 200.375 L 43.863281 200.375 L 43.863281 225.875 L 18.363281 225.875 Z M 18.363281 200.375 " clip-rule="nonzero"/></clipPath><clipPath id="c0e2d3ea5d"><path d="M 31.113281 200.375 C 24.070312 200.375 18.363281 206.082031 18.363281 213.125 C 18.363281 220.167969 24.070312 225.875 31.113281 225.875 C 38.152344 225.875 43.863281 220.167969 43.863281 213.125 C 43.863281 206.082031 38.152344 200.375 31.113281 200.375 " clip-rule="nonzero"/></clipPath><clipPath id="02fc2bb680"><path d="M 24.625 161.75 L 50.375 161.75 L 50.375 187.5 L 24.625 187.5 Z M 24.625 161.75 " clip-rule="nonzero"/></clipPath><clipPath id="6b39e0c8dc"><path d="M 37.5 161.75 C 30.390625 161.75 24.625 167.515625 24.625 174.625 C 24.625 181.734375 30.390625 187.5 37.5 187.5 C 44.609375 187.5 50.375 181.734375 50.375 174.625 C 50.375 167.515625 44.609375 161.75 37.5 161.75 " clip-rule="nonzero"/></clipPath><clipPath id="cf26bbfec3"><path d="M 24.625 161.75 L 50.125 161.75 L 50.125 187.25 L 24.625 187.25 Z M 24.625 161.75 " clip-rule="nonzero"/></clipPath><clipPath id="0d1ea75d74"><path d="M 37.375 161.75 C 30.332031 161.75 24.625 167.460938 24.625 174.5 C 24.625 181.542969 30.332031 187.25 37.375 187.25 C 44.417969 187.25 50.125 181.542969 50.125 174.5 C 50.125 167.460938 44.417969 161.75 37.375 161.75 " clip-rule="nonzero"/></clipPath><clipPath id="5f426d8cd6"><path d="M 94.21875 174.625 L 119.96875 174.625 L 119.96875 200.375 L 94.21875 200.375 Z M 94.21875 174.625 " clip-rule="nonzero"/></clipPath><clipPath id="dfd17f41ba"><path d="M 107.09375 174.625 C 99.984375 174.625 94.21875 180.390625 94.21875 187.5 C 94.21875 194.609375 99.984375 200.375 107.09375 200.375 C 114.203125 200.375 119.96875 194.609375 119.96875 187.5 C 119.96875 180.390625 114.203125 174.625 107.09375 174.625 " clip-rule="nonzero"/></clipPath><clipPath id="9e1155a4a6"><path d="M 94.21875 174.625 L 119.71875 174.625 L 119.71875 200.125 L 94.21875 200.125 Z M 94.21875 174.625 " clip-rule="nonzero"/></clipPath><clipPath id="8a1d154cd4"><path d="M 106.96875 174.625 C 99.925781 174.625 94.21875 180.332031 94.21875 187.375 C 94.21875 194.417969 99.925781 200.125 106.96875 200.125 C 114.011719 200.125 119.71875 194.417969 119.71875 187.375 C 119.71875 180.332031 114.011719 174.625 106.96875 174.625 " clip-rule="nonzero"/></clipPath><clipPath id="d2b67c08f8"><path d="M 47.109375 180.039062 L 94.21875 180.039062 L 94.21875 227.148438 L 47.109375 227.148438 Z M 47.109375 180.039062 " clip-rule="nonzero"/></clipPath><clipPath id="3cdeb0108a"><path d="M 70.664062 180.039062 C 57.65625 180.039062 47.109375 190.585938 47.109375 203.59375 C 47.109375 216.601562 57.65625 227.148438 70.664062 227.148438 C 83.671875 227.148438 94.21875 216.601562 94.21875 203.59375 C 94.21875 190.585938 83.671875 180.039062 70.664062 180.039062 " clip-rule="nonzero"/></clipPath><clipPath id="d7b38bea4c"><path d="M 47.109375 180.039062 L 94.359375 180.039062 L 94.359375 227.289062 L 47.109375 227.289062 Z M 47.109375 180.039062 " clip-rule="nonzero"/></clipPath><clipPath id="bfa90e2738"><path d="M 70.734375 180.039062 C 57.6875 180.039062 47.109375 190.617188 47.109375 203.664062 C 47.109375 216.710938 57.6875 227.289062 70.734375 227.289062 C 83.785156 227.289062 94.359375 216.710938 94.359375 203.664062 C 94.359375 190.617188 83.785156 180.039062 70.734375 180.039062 " clip-rule="nonzero"/></clipPath><clipPath id="b0cc4f9e2a"><path d="M 61.640625 147.851562 L 87.390625 147.851562 L 87.390625 173.601562 L 61.640625 173.601562 Z M 61.640625 147.851562 " clip-rule="nonzero"/></clipPath><clipPath id="b8a8bd40bc"><path d="M 74.515625 147.851562 C 67.40625 147.851562 61.640625 153.617188 61.640625 160.726562 C 61.640625 167.835938 67.40625 173.601562 74.515625 173.601562 C 81.625 173.601562 87.390625 167.835938 87.390625 160.726562 C 87.390625 153.617188 81.625 147.851562 74.515625 147.851562 " clip-rule="nonzero"/></clipPath><clipPath id="37295b0000"><path d="M 61.640625 147.851562 L 87.140625 147.851562 L 87.140625 173.351562 L 61.640625 173.351562 Z M 61.640625 147.851562 " clip-rule="nonzero"/></clipPath><clipPath id="79fba55c59"><path d="M 74.390625 147.851562 C 67.347656 147.851562 61.640625 153.5625 61.640625 160.601562 C 61.640625 167.644531 67.347656 173.351562 74.390625 173.351562 C 81.433594 173.351562 87.140625 167.644531 87.140625 160.601562 C 87.140625 153.5625 81.433594 147.851562 74.390625 147.851562 " clip-rule="nonzero"/></clipPath></defs><g clip-path="url(#e45da6e8d4)"><g clip-path="url(#eb9c1af5a0)"><path fill="#ffffff" d="M 18.363281 200.375 L 44.109375 200.375 L 44.109375 226.125 L 18.363281 226.125 Z M 18.363281 200.375 " fill-opacity="1" fill-rule="nonzero"/></g></g><g clip-path="url(#66cb24b9bb)"><g clip-path="url(#c0e2d3ea5d)"><path stroke-linecap="butt" transform="matrix(0.742831, 0, 0, 0.742831, 18.362038, 200.374381)" fill="none" stroke-linejoin="miter" d="M 17.165738 0.000832973 C 7.684486 0.000832973 0.00167429 7.683645 0.00167429 17.164897 C 0.00167429 26.64089 7.684486 34.32896 17.165738 34.32896 C 26.641732 34.32896 34.329802 26.64089 34.329802 17.164897 C 34.329802 7.683645 26.641732 0.000832973 17.165738 0.000832973 " stroke="#ffffff" stroke-width="8" stroke-opacity="1" stroke-miterlimit="4"/></g></g><g fill="#ffffff" fill-opacity="1"><g transform="translate(135.783914, 176.249988)"><g><path d="M 4.785156 -11.117188 L 4.785156 -20.222656 L 9.996094 -20.222656 C 11.347656 -20.222656 12.4375 -19.796875 13.261719 -18.96875 C 14.054688 -18.113281 14.484375 -17.058594 14.484375 -15.738281 C 14.484375 -14.382812 14.054688 -13.296875 13.195312 -12.40625 C 12.339844 -11.546875 11.285156 -11.117188 9.996094 -11.117188 Z M 16.792969 -15.671875 C 16.792969 -17.652344 16.066406 -19.269531 14.683594 -20.554688 C 13.296875 -21.808594 11.644531 -22.433594 9.667969 -22.433594 L 2.472656 -22.433594 L 2.472656 0 L 4.785156 0 L 4.785156 -8.875 L 9.667969 -8.875 C 11.644531 -8.875 13.328125 -9.5 14.683594 -10.753906 C 16.066406 -12.074219 16.792969 -13.691406 16.792969 -15.671875 Z M 16.792969 -15.671875 "/></g></g></g><g fill="#ffffff" fill-opacity="1"><g transform="translate(153.234734, 176.249988)"><g><path d="M 14.023438 -7.257812 C 14.023438 -5.839844 13.527344 -4.585938 12.539062 -3.5625 C 11.546875 -2.507812 10.328125 -1.980469 8.90625 -1.980469 C 7.457031 -1.980469 6.234375 -2.507812 5.246094 -3.5625 C 4.257812 -4.585938 3.792969 -5.839844 3.792969 -7.257812 C 3.792969 -8.644531 4.257812 -9.898438 5.246094 -10.953125 C 6.234375 -12.007812 7.457031 -12.539062 8.90625 -12.539062 C 10.328125 -12.539062 11.546875 -12.007812 12.539062 -10.953125 C 13.527344 -9.898438 14.023438 -8.644531 14.023438 -7.257812 Z M 16.332031 0 L 16.332031 -14.515625 L 14.023438 -14.515625 L 14.023438 -12.007812 C 13.890625 -12.207031 13.726562 -12.371094 13.59375 -12.539062 C 12.207031 -14.054688 10.523438 -14.847656 8.546875 -14.847656 C 6.53125 -14.847656 4.851562 -14.054688 3.464844 -12.539062 C 2.144531 -11.019531 1.484375 -9.269531 1.484375 -7.257812 C 1.484375 -5.210938 2.144531 -3.464844 3.464844 -1.980469 C 4.851562 -0.429688 6.53125 0.328125 8.546875 0.328125 C 10.523438 0.328125 12.207031 -0.429688 13.59375 -1.980469 C 13.726562 -2.113281 13.890625 -2.277344 14.023438 -2.472656 L 14.023438 0 Z M 16.332031 0 "/></g></g></g><g fill="#ffffff" fill-opacity="1"><g transform="translate(172.038073, 176.249988)"><g><path d="M 16.660156 1.847656 L 23.558594 -14.515625 L 20.984375 -14.515625 L 16.628906 -3.332031 L 11.941406 -15.277344 L 7.257812 -3.332031 L 2.902344 -14.515625 L 0.328125 -14.515625 L 7.292969 1.847656 L 11.941406 -9.863281 Z M 16.660156 1.847656 "/></g></g></g><g fill="#ffffff" fill-opacity="1"><g transform="translate(195.921605, 176.249988)"><g><path d="M 4.554688 -2.046875 C 3.992188 -2.441406 3.5625 -3.101562 3.332031 -4.058594 L 0.890625 -4.058594 C 1.386719 -1.054688 3.300781 0.429688 6.664062 0.429688 C 7.457031 0.429688 8.183594 0.363281 8.875 0.164062 C 9.566406 -0.03125 10.160156 -0.296875 10.722656 -0.660156 C 11.84375 -1.417969 12.40625 -2.574219 12.40625 -4.125 C 12.40625 -5.707031 11.679688 -6.828125 10.160156 -7.554688 C 9.535156 -7.851562 8.84375 -8.082031 8.082031 -8.25 C 7.355469 -8.414062 6.664062 -8.609375 6.039062 -8.808594 C 5.378906 -9.007812 4.851562 -9.269531 4.421875 -9.566406 C 3.992188 -9.863281 3.761719 -10.328125 3.761719 -10.988281 C 3.761719 -11.644531 4.023438 -12.140625 4.554688 -12.4375 C 5.082031 -12.769531 5.707031 -12.933594 6.402344 -12.933594 C 7.125 -12.933594 7.753906 -12.769531 8.25 -12.503906 C 8.742188 -12.238281 9.140625 -11.710938 9.371094 -10.921875 L 11.84375 -10.921875 C 11.546875 -12.371094 10.921875 -13.394531 9.996094 -13.957031 C 9.039062 -14.550781 7.886719 -14.847656 6.464844 -14.847656 C 5.082031 -14.847656 3.859375 -14.449219 2.835938 -13.726562 C 1.847656 -12.964844 1.320312 -11.878906 1.320312 -10.425781 C 1.320312 -9.734375 1.519531 -9.105469 1.878906 -8.578125 C 2.277344 -8.015625 2.835938 -7.589844 3.5625 -7.257812 C 4.222656 -6.960938 4.914062 -6.730469 5.640625 -6.53125 C 6.367188 -6.367188 7.058594 -6.167969 7.71875 -5.972656 C 9.203125 -5.476562 9.964844 -4.75 9.964844 -3.828125 C 9.964844 -2.242188 8.90625 -1.484375 6.796875 -1.484375 C 5.90625 -1.484375 5.148438 -1.648438 4.554688 -2.046875 Z M 4.554688 -2.046875 "/></g></g></g><g fill="#ffffff" fill-opacity="1"><g transform="translate(209.182903, 176.249988)"><g/></g></g><g fill="#ffffff" fill-opacity="1"><g transform="translate(218.089748, 176.249988)"><g><path d="M 8.675781 -11.382812 L 13.59375 -5.082031 C 13.261719 -4.75 12.898438 -4.386719 12.503906 -4.023438 C 11.050781 -2.640625 9.699219 -1.980469 8.511719 -1.980469 C 7.390625 -1.980469 6.402344 -2.410156 5.609375 -3.300781 C 4.816406 -4.15625 4.421875 -5.148438 4.421875 -6.269531 C 4.421875 -7.191406 4.949219 -8.183594 6.039062 -9.269531 C 6.53125 -9.765625 7.390625 -10.457031 8.675781 -11.382812 Z M 8.480469 -15.042969 C 7.488281 -16.066406 7.027344 -17.023438 7.027344 -18.015625 C 7.027344 -18.96875 7.292969 -19.664062 7.851562 -20.125 C 8.378906 -20.554688 9.007812 -20.753906 9.667969 -20.71875 C 10.328125 -20.6875 10.953125 -20.457031 11.515625 -19.992188 C 12.042969 -19.53125 12.339844 -18.871094 12.339844 -18.078125 C 12.339844 -17.253906 11.976562 -16.496094 11.285156 -15.804688 C 10.953125 -15.472656 10.625 -15.210938 10.261719 -14.945312 C 9.898438 -14.683594 9.566406 -14.449219 9.238281 -14.21875 C 8.972656 -14.484375 8.742188 -14.78125 8.480469 -15.042969 Z M 19.628906 -8.742188 L 17.75 -9.996094 L 16.496094 -8.414062 C 16.066406 -7.886719 15.636719 -7.355469 15.210938 -6.828125 L 10.589844 -12.734375 C 10.988281 -13.066406 11.449219 -13.394531 11.910156 -13.789062 C 13.625 -15.210938 14.484375 -16.660156 14.484375 -18.113281 C 14.484375 -19.464844 14.023438 -20.585938 13.097656 -21.476562 C 12.207031 -22.335938 11.085938 -22.765625 9.699219 -22.765625 C 8.25 -22.765625 7.058594 -22.304688 6.203125 -21.378906 C 5.3125 -20.457031 4.882812 -19.300781 4.882812 -17.914062 C 4.882812 -16.527344 5.675781 -14.914062 7.257812 -13.097656 C 6.597656 -12.601562 5.9375 -12.140625 5.34375 -11.679688 C 3.199219 -10.128906 2.144531 -8.25 2.144531 -6.105469 C 2.144531 -4.222656 2.738281 -2.671875 3.992188 -1.417969 C 4.585938 -0.824219 5.277344 -0.394531 6.070312 -0.0664062 C 6.863281 0.265625 7.785156 0.394531 8.808594 0.394531 C 9.863281 0.394531 11.019531 0 12.371094 -0.859375 C 13.066406 -1.253906 13.921875 -2.011719 15.042969 -3.132812 L 17.484375 0.0664062 L 20.519531 0 L 16.660156 -5.046875 C 18.3125 -7.027344 19.300781 -8.28125 19.628906 -8.742188 Z M 19.628906 -8.742188 "/></g></g></g><g fill="#ffffff" fill-opacity="1"><g transform="translate(240.818697, 176.249988)"><g/></g></g><g fill="#ffffff" fill-opacity="1"><g transform="translate(249.725541, 176.249988)"><g><path d="M 23.0625 -6.863281 L 20.519531 -6.863281 C 19.730469 -5.410156 18.640625 -4.222656 17.253906 -3.367188 C 15.871094 -2.472656 14.320312 -2.046875 12.667969 -2.046875 C 10.195312 -2.046875 8.082031 -2.9375 6.335938 -4.785156 C 4.617188 -6.53125 3.792969 -8.675781 3.792969 -11.183594 C 3.792969 -13.691406 4.617188 -15.835938 6.335938 -17.617188 C 7.125 -18.441406 8.082031 -19.101562 9.171875 -19.597656 C 10.226562 -20.09375 11.285156 -20.355469 12.339844 -20.355469 C 13.363281 -20.355469 14.253906 -20.222656 15.042969 -19.992188 C 17.453125 -19.269531 19.269531 -17.816406 20.488281 -15.605469 L 23.027344 -15.605469 C 22.171875 -17.71875 20.816406 -19.433594 18.9375 -20.753906 C 17.023438 -22.070312 14.945312 -22.730469 12.667969 -22.730469 C 9.535156 -22.730469 6.894531 -21.578125 4.71875 -19.300781 C 3.695312 -18.246094 2.902344 -16.992188 2.34375 -15.605469 C 1.75 -14.21875 1.484375 -12.734375 1.484375 -11.183594 C 1.484375 -8.015625 2.539062 -5.34375 4.71875 -3.101562 C 6.894531 -0.792969 9.535156 0.328125 12.667969 0.328125 C 14.945312 0.328125 17.023438 -0.328125 18.96875 -1.648438 C 20.851562 -2.96875 22.203125 -4.683594 23.0625 -6.863281 Z M 23.0625 -6.863281 "/></g></g></g><g fill="#ffffff" fill-opacity="1"><g transform="translate(273.774017, 176.249988)"><g><path d="M 4.785156 0 L 4.785156 -24.746094 L 2.472656 -24.746094 L 2.472656 0 Z M 4.785156 0 "/></g></g></g><g fill="#ffffff" fill-opacity="1"><g transform="translate(281.031447, 176.249988)"><g><path d="M 14.023438 -7.257812 C 14.023438 -5.839844 13.527344 -4.585938 12.539062 -3.5625 C 11.546875 -2.507812 10.328125 -1.980469 8.90625 -1.980469 C 7.457031 -1.980469 6.234375 -2.507812 5.246094 -3.5625 C 4.257812 -4.585938 3.792969 -5.839844 3.792969 -7.257812 C 3.792969 -8.644531 4.257812 -9.898438 5.246094 -10.953125 C 6.234375 -12.007812 7.457031 -12.539062 8.90625 -12.539062 C 10.328125 -12.539062 11.546875 -12.007812 12.539062 -10.953125 C 13.527344 -9.898438 14.023438 -8.644531 14.023438 -7.257812 Z M 16.332031 0 L 16.332031 -14.515625 L 14.023438 -14.515625 L 14.023438 -12.007812 C 13.890625 -12.207031 13.726562 -12.371094 13.59375 -12.539062 C 12.207031 -14.054688 10.523438 -14.847656 8.546875 -14.847656 C 6.53125 -14.847656 4.851562 -14.054688 3.464844 -12.539062 C 2.144531 -11.019531 1.484375 -9.269531 1.484375 -7.257812 C 1.484375 -5.210938 2.144531 -3.464844 3.464844 -1.980469 C 4.851562 -0.429688 6.53125 0.328125 8.546875 0.328125 C 10.523438 0.328125 12.207031 -0.429688 13.59375 -1.980469 C 13.726562 -2.113281 13.890625 -2.277344 14.023438 -2.472656 L 14.023438 0 Z M 16.332031 0 "/></g></g></g><g fill="#ffffff" fill-opacity="1"><g transform="translate(299.834787, 176.249988)"><g><path d="M 16.660156 1.847656 L 23.558594 -14.515625 L 20.984375 -14.515625 L 16.628906 -3.332031 L 11.941406 -15.277344 L 7.257812 -3.332031 L 2.902344 -14.515625 L 0.328125 -14.515625 L 7.292969 1.847656 L 11.941406 -9.863281 Z M 16.660156 1.847656 "/></g></g></g><g fill="#ffffff" fill-opacity="1"><g transform="translate(323.718318, 176.249988)"><g><path d="M 4.554688 -2.046875 C 3.992188 -2.441406 3.5625 -3.101562 3.332031 -4.058594 L 0.890625 -4.058594 C 1.386719 -1.054688 3.300781 0.429688 6.664062 0.429688 C 7.457031 0.429688 8.183594 0.363281 8.875 0.164062 C 9.566406 -0.03125 10.160156 -0.296875 10.722656 -0.660156 C 11.84375 -1.417969 12.40625 -2.574219 12.40625 -4.125 C 12.40625 -5.707031 11.679688 -6.828125 10.160156 -7.554688 C 9.535156 -7.851562 8.84375 -8.082031 8.082031 -8.25 C 7.355469 -8.414062 6.664062 -8.609375 6.039062 -8.808594 C 5.378906 -9.007812 4.851562 -9.269531 4.421875 -9.566406 C 3.992188 -9.863281 3.761719 -10.328125 3.761719 -10.988281 C 3.761719 -11.644531 4.023438 -12.140625 4.554688 -12.4375 C 5.082031 -12.769531 5.707031 -12.933594 6.402344 -12.933594 C 7.125 -12.933594 7.753906 -12.769531 8.25 -12.503906 C 8.742188 -12.238281 9.140625 -11.710938 9.371094 -10.921875 L 11.84375 -10.921875 C 11.546875 -12.371094 10.921875 -13.394531 9.996094 -13.957031 C 9.039062 -14.550781 7.886719 -14.847656 6.464844 -14.847656 C 5.082031 -14.847656 3.859375 -14.449219 2.835938 -13.726562 C 1.847656 -12.964844 1.320312 -11.878906 1.320312 -10.425781 C 1.320312 -9.734375 1.519531 -9.105469 1.878906 -8.578125 C 2.277344 -8.015625 2.835938 -7.589844 3.5625 -7.257812 C 4.222656 -6.960938 4.914062 -6.730469 5.640625 -6.53125 C 6.367188 -6.367188 7.058594 -6.167969 7.71875 -5.972656 C 9.203125 -5.476562 9.964844 -4.75 9.964844 -3.828125 C 9.964844 -2.242188 8.90625 -1.484375 6.796875 -1.484375 C 5.90625 -1.484375 5.148438 -1.648438 4.554688 -2.046875 Z M 4.554688 -2.046875 "/></g></g></g><g fill="#ffffff" fill-opacity="1"><g transform="translate(336.971405, 176.249988)"><g/></g></g><g fill="#ffffff" fill-opacity="1"><g transform="translate(122.70579, 221.999985)"><g><path d="M 6.105469 -8.25 L 10.195312 -18.574219 L 14.253906 -8.25 Z M 20.027344 0 L 10.195312 -23.984375 L 0.328125 0 L 2.835938 0 L 5.246094 -6.105469 L 15.109375 -6.105469 L 17.519531 0 Z M 20.027344 0 "/></g></g></g><g fill="#ffffff" fill-opacity="1"><g transform="translate(143.059575, 221.999985)"><g><path d="M 14.023438 -7.257812 C 14.023438 -5.839844 13.527344 -4.585938 12.539062 -3.5625 C 11.546875 -2.507812 10.328125 -1.980469 8.90625 -1.980469 C 7.457031 -1.980469 6.234375 -2.507812 5.246094 -3.5625 C 4.257812 -4.585938 3.792969 -5.839844 3.792969 -7.257812 C 3.792969 -8.644531 4.257812 -9.898438 5.246094 -10.953125 C 6.234375 -12.007812 7.457031 -12.539062 8.90625 -12.539062 C 10.328125 -12.539062 11.546875 -12.007812 12.539062 -10.953125 C 13.527344 -9.898438 14.023438 -8.644531 14.023438 -7.257812 Z M 16.332031 0 L 16.332031 -24.746094 L 14.023438 -24.746094 L 14.023438 -12.007812 C 13.890625 -12.207031 13.726562 -12.371094 13.59375 -12.539062 C 12.207031 -14.054688 10.523438 -14.847656 8.546875 -14.847656 C 6.53125 -14.847656 4.851562 -14.054688 3.464844 -12.539062 C 2.144531 -11.019531 1.484375 -9.269531 1.484375 -7.257812 C 1.484375 -5.210938 2.144531 -3.464844 3.464844 -1.980469 C 4.851562 -0.429688 6.53125 0.328125 8.546875 0.328125 C 10.523438 0.328125 12.207031 -0.429688 13.59375 -1.980469 C 13.726562 -2.113281 13.890625 -2.277344 14.023438 -2.472656 L 14.023438 0 Z M 16.332031 0 "/></g></g></g><g fill="#ffffff" fill-opacity="1"><g transform="translate(161.862915, 221.999985)"><g><path d="M 14.351562 -7.324219 C 14.351562 -5.871094 13.824219 -4.652344 12.800781 -3.628906 C 11.746094 -2.574219 10.523438 -2.078125 9.074219 -2.078125 C 7.621094 -2.078125 6.367188 -2.574219 5.34375 -3.628906 C 4.289062 -4.652344 3.792969 -5.871094 3.792969 -7.324219 C 3.792969 -8.777344 4.289062 -9.996094 5.34375 -11.050781 C 6.367188 -12.074219 7.621094 -12.601562 9.074219 -12.601562 C 10.523438 -12.601562 11.746094 -12.074219 12.800781 -11.050781 C 13.824219 -9.996094 14.351562 -8.777344 14.351562 -7.324219 Z M 16.660156 -7.324219 C 16.660156 -9.402344 15.902344 -11.183594 14.417969 -12.667969 C 12.933594 -14.152344 11.152344 -14.914062 9.074219 -14.914062 C 6.960938 -14.914062 5.179688 -14.152344 3.695312 -12.667969 C 2.210938 -11.183594 1.484375 -9.402344 1.484375 -7.324219 C 1.484375 -5.210938 2.210938 -3.429688 3.695312 -1.980469 C 5.179688 -0.496094 6.996094 0.230469 9.074219 0.230469 C 11.117188 0.230469 12.933594 -0.496094 14.417969 -1.980469 C 15.902344 -3.429688 16.660156 -5.210938 16.660156 -7.324219 Z M 16.660156 -7.324219 "/></g></g></g><g fill="#ffffff" fill-opacity="1"><g transform="translate(180.00648, 221.999985)"><g><path d="M 4.785156 8.25 L 4.785156 -2.472656 C 4.882812 -2.277344 5.046875 -2.113281 5.179688 -1.980469 C 6.566406 -0.429688 8.25 0.328125 10.261719 0.328125 C 12.238281 0.328125 13.921875 -0.429688 15.308594 -1.980469 C 16.628906 -3.464844 17.320312 -5.210938 17.320312 -7.257812 C 17.320312 -9.269531 16.628906 -11.019531 15.308594 -12.539062 C 13.921875 -14.054688 12.238281 -14.847656 10.261719 -14.847656 C 8.25 -14.847656 6.566406 -14.054688 5.179688 -12.539062 C 5.046875 -12.371094 4.882812 -12.207031 4.785156 -12.007812 L 4.785156 -14.515625 L 2.472656 -14.515625 L 2.472656 8.25 Z M 15.011719 -7.257812 C 15.011719 -5.839844 14.515625 -4.585938 13.527344 -3.5625 C 12.539062 -2.507812 11.316406 -1.980469 9.898438 -1.980469 C 8.445312 -1.980469 7.226562 -2.507812 6.234375 -3.5625 C 5.246094 -4.585938 4.785156 -5.839844 4.785156 -7.257812 C 4.785156 -8.644531 5.246094 -9.898438 6.234375 -10.953125 C 7.226562 -12.007812 8.445312 -12.539062 9.898438 -12.539062 C 11.316406 -12.539062 12.539062 -12.007812 13.527344 -10.953125 C 14.515625 -9.898438 15.011719 -8.644531 15.011719 -7.257812 Z M 15.011719 -7.257812 "/></g></g></g><g fill="#ffffff" fill-opacity="1"><g transform="translate(198.80982, 221.999985)"><g><path d="M 0.660156 -12.371094 L 4.289062 -12.371094 L 4.289062 0 L 6.597656 0 L 6.597656 -12.371094 L 10.195312 -12.371094 L 10.195312 -14.515625 L 6.597656 -14.515625 L 6.597656 -20.160156 L 4.289062 -20.160156 L 4.289062 -14.515625 L 0.660156 -14.515625 Z M 0.660156 -12.371094 "/></g></g></g><g fill="#ffffff" fill-opacity="1"><g transform="translate(209.662972, 221.999985)"><g><path d="M 4.816406 -19.53125 C 4.519531 -19.796875 4.15625 -19.960938 3.761719 -19.960938 C 3.367188 -19.960938 3.003906 -19.796875 2.738281 -19.53125 C 2.441406 -19.234375 2.308594 -18.871094 2.308594 -18.476562 C 2.308594 -18.078125 2.441406 -17.71875 2.738281 -17.453125 C 3.003906 -17.15625 3.367188 -17.023438 3.761719 -17.023438 C 4.15625 -17.023438 4.519531 -17.15625 4.816406 -17.453125 C 5.082031 -17.71875 5.246094 -18.078125 5.246094 -18.476562 C 5.246094 -18.871094 5.082031 -19.234375 4.816406 -19.53125 Z M 4.949219 0 L 4.949219 -14.515625 L 2.640625 -14.515625 L 2.640625 0 Z M 4.949219 0 "/></g></g></g><g fill="#ffffff" fill-opacity="1"><g transform="translate(217.217297, 221.999985)"><g><path d="M 14.351562 -7.324219 C 14.351562 -5.871094 13.824219 -4.652344 12.800781 -3.628906 C 11.746094 -2.574219 10.523438 -2.078125 9.074219 -2.078125 C 7.621094 -2.078125 6.367188 -2.574219 5.34375 -3.628906 C 4.289062 -4.652344 3.792969 -5.871094 3.792969 -7.324219 C 3.792969 -8.777344 4.289062 -9.996094 5.34375 -11.050781 C 6.367188 -12.074219 7.621094 -12.601562 9.074219 -12.601562 C 10.523438 -12.601562 11.746094 -12.074219 12.800781 -11.050781 C 13.824219 -9.996094 14.351562 -8.777344 14.351562 -7.324219 Z M 16.660156 -7.324219 C 16.660156 -9.402344 15.902344 -11.183594 14.417969 -12.667969 C 12.933594 -14.152344 11.152344 -14.914062 9.074219 -14.914062 C 6.960938 -14.914062 5.179688 -14.152344 3.695312 -12.667969 C 2.210938 -11.183594 1.484375 -9.402344 1.484375 -7.324219 C 1.484375 -5.210938 2.210938 -3.429688 3.695312 -1.980469 C 5.179688 -0.496094 6.996094 0.230469 9.074219 0.230469 C 11.117188 0.230469 12.933594 -0.496094 14.417969 -1.980469 C 15.902344 -3.429688 16.660156 -5.210938 16.660156 -7.324219 Z M 16.660156 -7.324219 "/></g></g></g><g fill="#ffffff" fill-opacity="1"><g transform="translate(235.360862, 221.999985)"><g><path d="M 12.503906 0 L 14.8125 0 L 14.8125 -9.074219 C 14.8125 -10.753906 14.351562 -12.109375 13.492188 -13.132812 C 13.03125 -13.660156 12.503906 -14.054688 11.878906 -14.351562 C 11.21875 -14.648438 10.394531 -14.8125 9.371094 -14.8125 C 8.3125 -14.8125 7.421875 -14.515625 6.632812 -13.988281 C 5.871094 -13.492188 5.246094 -12.835938 4.785156 -12.007812 L 4.785156 -14.515625 L 2.472656 -14.515625 L 2.472656 0 L 4.785156 0 L 4.785156 -6.070312 C 4.785156 -7.917969 5.113281 -9.371094 5.808594 -10.457031 C 6.203125 -11.050781 6.699219 -11.546875 7.324219 -11.941406 C 7.917969 -12.304688 8.742188 -12.503906 9.734375 -12.503906 C 10.722656 -12.503906 11.414062 -12.140625 11.84375 -11.480469 C 12.273438 -10.820312 12.503906 -9.996094 12.503906 -9.074219 Z M 12.503906 0 "/></g></g></g><g fill="#ffffff" fill-opacity="1"><g transform="translate(261.058752, 221.999985)"><g><path d="M 23.0625 -6.863281 L 20.519531 -6.863281 C 19.730469 -5.410156 18.640625 -4.222656 17.253906 -3.367188 C 15.871094 -2.472656 14.320312 -2.046875 12.667969 -2.046875 C 10.195312 -2.046875 8.082031 -2.9375 6.335938 -4.785156 C 4.617188 -6.53125 3.792969 -8.675781 3.792969 -11.183594 C 3.792969 -13.691406 4.617188 -15.835938 6.335938 -17.617188 C 7.125 -18.441406 8.082031 -19.101562 9.171875 -19.597656 C 10.226562 -20.09375 11.285156 -20.355469 12.339844 -20.355469 C 13.363281 -20.355469 14.253906 -20.222656 15.042969 -19.992188 C 17.453125 -19.269531 19.269531 -17.816406 20.488281 -15.605469 L 23.027344 -15.605469 C 22.171875 -17.71875 20.816406 -19.433594 18.9375 -20.753906 C 17.023438 -22.070312 14.945312 -22.730469 12.667969 -22.730469 C 9.535156 -22.730469 6.894531 -21.578125 4.71875 -19.300781 C 3.695312 -18.246094 2.902344 -16.992188 2.34375 -15.605469 C 1.75 -14.21875 1.484375 -12.734375 1.484375 -11.183594 C 1.484375 -8.015625 2.539062 -5.34375 4.71875 -3.101562 C 6.894531 -0.792969 9.535156 0.328125 12.667969 0.328125 C 14.945312 0.328125 17.023438 -0.328125 18.96875 -1.648438 C 20.851562 -2.96875 22.203125 -4.683594 23.0625 -6.863281 Z M 23.0625 -6.863281 "/></g></g></g><g fill="#ffffff" fill-opacity="1"><g transform="translate(285.107228, 221.999985)"><g><path d="M 16.660156 -7.589844 C 16.660156 -9.566406 15.871094 -11.285156 14.351562 -12.769531 C 12.867188 -14.1875 11.085938 -14.914062 9.074219 -14.914062 C 6.960938 -14.914062 5.179688 -14.152344 3.695312 -12.667969 C 2.210938 -11.183594 1.484375 -9.402344 1.484375 -7.324219 C 1.484375 -5.210938 2.210938 -3.429688 3.695312 -1.980469 C 4.386719 -1.285156 5.179688 -0.757812 6.105469 -0.363281 C 7.027344 0.03125 8.117188 0.230469 9.402344 0.230469 C 10.691406 0.230469 11.941406 -0.164062 13.195312 -0.957031 C 14.449219 -1.75 15.375 -2.871094 16 -4.257812 L 13.363281 -4.257812 C 12.835938 -3.5625 12.207031 -3.035156 11.449219 -2.640625 C 10.691406 -2.242188 9.898438 -2.078125 9.074219 -2.078125 C 7.820312 -2.078125 6.699219 -2.472656 5.707031 -3.300781 C 4.71875 -4.089844 4.089844 -5.113281 3.894531 -6.367188 L 16.660156 -6.367188 Z M 14.21875 -8.347656 L 3.925781 -8.347656 C 4.058594 -8.941406 4.289062 -9.5 4.617188 -10.03125 C 5.675781 -11.746094 7.160156 -12.601562 9.074219 -12.601562 C 10.292969 -12.601562 11.382812 -12.207031 12.339844 -11.414062 C 13.328125 -10.589844 13.921875 -9.566406 14.21875 -8.347656 Z M 14.21875 -8.347656 "/></g></g></g><g fill="#ffffff" fill-opacity="1"><g transform="translate(303.08586, 221.999985)"><g><path d="M 12.503906 0 L 14.8125 0 L 14.8125 -9.074219 C 14.8125 -10.753906 14.351562 -12.109375 13.492188 -13.132812 C 13.03125 -13.660156 12.503906 -14.054688 11.878906 -14.351562 C 11.21875 -14.648438 10.394531 -14.8125 9.371094 -14.8125 C 8.3125 -14.8125 7.421875 -14.515625 6.632812 -13.988281 C 5.871094 -13.492188 5.246094 -12.835938 4.785156 -12.007812 L 4.785156 -14.515625 L 2.472656 -14.515625 L 2.472656 0 L 4.785156 0 L 4.785156 -6.070312 C 4.785156 -7.917969 5.113281 -9.371094 5.808594 -10.457031 C 6.203125 -11.050781 6.699219 -11.546875 7.324219 -11.941406 C 7.917969 -12.304688 8.742188 -12.503906 9.734375 -12.503906 C 10.722656 -12.503906 11.414062 -12.140625 11.84375 -11.480469 C 12.273438 -10.820312 12.503906 -9.996094 12.503906 -9.074219 Z M 12.503906 0 "/></g></g></g><g fill="#ffffff" fill-opacity="1"><g transform="translate(319.876906, 221.999985)"><g><path d="M 0.660156 -12.371094 L 4.289062 -12.371094 L 4.289062 0 L 6.597656 0 L 6.597656 -12.371094 L 10.195312 -12.371094 L 10.195312 -14.515625 L 6.597656 -14.515625 L 6.597656 -20.160156 L 4.289062 -20.160156 L 4.289062 -14.515625 L 0.660156 -14.515625 Z M 0.660156 -12.371094 "/></g></g></g><g fill="#ffffff" fill-opacity="1"><g transform="translate(330.73007, 221.999985)"><g><path d="M 16.660156 -7.589844 C 16.660156 -9.566406 15.871094 -11.285156 14.351562 -12.769531 C 12.867188 -14.1875 11.085938 -14.914062 9.074219 -14.914062 C 6.960938 -14.914062 5.179688 -14.152344 3.695312 -12.667969 C 2.210938 -11.183594 1.484375 -9.402344 1.484375 -7.324219 C 1.484375 -5.210938 2.210938 -3.429688 3.695312 -1.980469 C 4.386719 -1.285156 5.179688 -0.757812 6.105469 -0.363281 C 7.027344 0.03125 8.117188 0.230469 9.402344 0.230469 C 10.691406 0.230469 11.941406 -0.164062 13.195312 -0.957031 C 14.449219 -1.75 15.375 -2.871094 16 -4.257812 L 13.363281 -4.257812 C 12.835938 -3.5625 12.207031 -3.035156 11.449219 -2.640625 C 10.691406 -2.242188 9.898438 -2.078125 9.074219 -2.078125 C 7.820312 -2.078125 6.699219 -2.472656 5.707031 -3.300781 C 4.71875 -4.089844 4.089844 -5.113281 3.894531 -6.367188 L 16.660156 -6.367188 Z M 14.21875 -8.347656 L 3.925781 -8.347656 C 4.058594 -8.941406 4.289062 -9.5 4.617188 -10.03125 C 5.675781 -11.746094 7.160156 -12.601562 9.074219 -12.601562 C 10.292969 -12.601562 11.382812 -12.207031 12.339844 -11.414062 C 13.328125 -10.589844 13.921875 -9.566406 14.21875 -8.347656 Z M 14.21875 -8.347656 "/></g></g></g><g fill="#ffffff" fill-opacity="1"><g transform="translate(348.708691, 221.999985)"><g><path d="M 9.929688 -11.515625 L 9.929688 -14.515625 C 9.46875 -14.714844 8.972656 -14.8125 8.480469 -14.8125 C 6.828125 -14.8125 5.640625 -13.890625 4.882812 -12.109375 L 4.785156 -11.515625 L 4.785156 -14.515625 L 2.472656 -14.515625 L 2.472656 0 L 4.785156 0 L 4.785156 -7.257812 C 4.785156 -8.445312 5.046875 -9.5 5.609375 -10.457031 C 5.871094 -10.953125 6.234375 -11.382812 6.664062 -11.710938 C 7.09375 -12.042969 7.621094 -12.238281 8.214844 -12.238281 C 8.808594 -12.238281 9.371094 -11.976562 9.929688 -11.515625 Z M 9.929688 -11.515625 "/></g></g></g><g clip-path="url(#02fc2bb680)"><g clip-path="url(#6b39e0c8dc)"><path fill="#ffffff" d="M 24.625 161.75 L 50.375 161.75 L 50.375 187.5 L 24.625 187.5 Z M 24.625 161.75 " fill-opacity="1" fill-rule="nonzero"/></g></g><g clip-path="url(#cf26bbfec3)"><g clip-path="url(#0d1ea75d74)"><path stroke-linecap="butt" transform="matrix(0.742831, 0, 0, 0.742831, 24.625603, 161.751141)" fill="none" stroke-linejoin="miter" d="M 17.163252 -0.00153545 C 7.682 -0.00153545 -0.000811709 7.686535 -0.000811709 17.162528 C -0.000811709 26.64378 7.682 34.326592 17.163252 34.326592 C 26.644504 34.326592 34.327316 26.64378 34.327316 17.162528 C 34.327316 7.686535 26.644504 -0.00153545 17.163252 -0.00153545 " stroke="#ffffff" stroke-width="8" stroke-opacity="1" stroke-miterlimit="4"/></g></g><g clip-path="url(#5f426d8cd6)"><g clip-path="url(#dfd17f41ba)"><path fill="#ffffff" d="M 94.21875 174.625 L 119.96875 174.625 L 119.96875 200.375 L 94.21875 200.375 Z M 94.21875 174.625 " fill-opacity="1" fill-rule="nonzero"/></g></g><g clip-path="url(#9e1155a4a6)"><g clip-path="url(#8a1d154cd4)"><path stroke-linecap="butt" transform="matrix(0.742831, 0, 0, 0.742831, 94.219311, 174.625594)" fill="none" stroke-linejoin="miter" d="M 17.163308 -0.000799822 C 7.682056 -0.000799822 -0.000755371 7.682012 -0.000755371 17.163264 C -0.000755371 26.644516 7.682056 34.327328 17.163308 34.327328 C 26.644561 34.327328 34.327372 26.644516 34.327372 17.163264 C 34.327372 7.682012 26.644561 -0.000799822 17.163308 -0.000799822 " stroke="#ffffff" stroke-width="8" stroke-opacity="1" stroke-miterlimit="4"/></g></g><g clip-path="url(#d2b67c08f8)"><g clip-path="url(#3cdeb0108a)"><path fill="#ffffff" d="M 47.109375 180.039062 L 94.21875 180.039062 L 94.21875 227.148438 L 47.109375 227.148438 Z M 47.109375 180.039062 " fill-opacity="1" fill-rule="nonzero"/></g></g><g clip-path="url(#d7b38bea4c)"><g clip-path="url(#bfa90e2738)"><path stroke-linecap="butt" transform="matrix(0.752426, 0, 0, 0.752426, 47.110837, 180.038719)" fill="none" stroke-linejoin="miter" d="M 31.396496 0.000456022 C 14.056749 0.000456022 -0.00194359 14.059149 -0.00194359 31.398896 C -0.00194359 48.738643 14.056749 62.797336 31.396496 62.797336 C 48.741435 62.797336 62.794936 48.738643 62.794936 31.398896 C 62.794936 14.059149 48.741435 0.000456022 31.396496 0.000456022 " stroke="#ffffff" stroke-width="8" stroke-opacity="1" stroke-miterlimit="4"/></g></g><g clip-path="url(#b0cc4f9e2a)"><g clip-path="url(#b8a8bd40bc)"><path fill="#ffffff" d="M 61.640625 147.851562 L 87.390625 147.851562 L 87.390625 173.601562 L 61.640625 173.601562 Z M 61.640625 147.851562 " fill-opacity="1" fill-rule="nonzero"/></g></g><g clip-path="url(#37295b0000)"><g clip-path="url(#79fba55c59)"><path stroke-linecap="butt" transform="matrix(0.742831, 0, 0, 0.742831, 61.64042, 147.852705)" fill="none" stroke-linejoin="miter" d="M 17.16434 -0.0015387 C 7.683088 -0.0015387 0.000276439 7.686532 0.000276439 17.162525 C 0.000276439 26.643777 7.683088 34.326589 17.16434 34.326589 C 26.645592 34.326589 34.328404 26.643777 34.328404 17.162525 C 34.328404 7.686532 26.645592 -0.0015387 17.16434 -0.0015387 " stroke="#ffffff" stroke-width="8" stroke-opacity="1" stroke-miterlimit="4"/></g></g></svg>